<?xml version="1.0" encoding="utf-8"?>
<!-- Generator: Adobe Illustrator 23.0.3, SVG Export Plug-In . SVG Version: 6.00 Build 0)  -->
<svg version="1.1" id="Layer_1" xmlns="http://www.w3.org/2000/svg" xmlns:xlink="http://www.w3.org/1999/xlink" x="0px" y="0px"
	 viewBox="0 0 200 200" style="enable-background:new 0 0 200 200;" xml:space="preserve">
<title>music</title>
<path d="M136.2,126.4v1.1c0,12.4-12.6,12.9-12.6,12.9h-6.1c-15.5,0-12.5-15.6-12.5-15.6v-0.1c1-4.3,4.8-7.4,9.2-7.4h10.8
	c5.4,0,5.1-3.7,5.1-3.7V72.1l-40,8.1c-7.6,1.5-7.3,4.4-7.3,4.4v53.5c0,12.4-12.6,12.9-12.6,12.9H64c-15.5,0-12.5-15.6-12.5-15.6
	v-0.1c1-4.3,4.8-7.4,9.2-7.4h10.8c5.4,0,5.2-3.7,5.2-3.7V67l0.1,0.1v-1.4c0-3,2.1-5.9,4.6-6.4l50.4-10.2c2.5-0.5,4.6,1.5,4.5,4.5
	v22.5l0,0L136.2,126.4z"/>
</svg>
